# xmcd
#
# Track frame offsets:
#	150
#	20367
#	47172
#	86617
#	109515
#	139675
#	160942
#	192417
#
# Disc length: 3284 seconds
#
# Revision: 1
# Processed by: cddbd v1.5.2PL0 Copyright (c) Steve Scherf et al.
# Submitted via: audiograbber 1.83.01
#
DISCID=610cd208
DTITLE=Various Artist - Zeittakt Live 1995
DYEAR=1996
DGENRE=Blues
TTITLE0=Marla Glen and Band - What about our kids (live)
TTITLE1=Marla Glen and Band - You got the power (live)
TTITLE2=Marla Glen and Band - Believer (live)
TTITLE3=Austin deLone and Jimmy Dillon - Soul cruising
TTITLE4=Austin deLone and Jimmy Dillon - Ball and Chain
TTITLE5=Myra Melford Quintet - Don't you know
TTITLE6=Myra Melford Quintet - Only in change
TTITLE7=Myra Melford Quintet - In broad daylight
EXTD=Int. Zelt-Musik-Festival D-79106 Freiburg\nZeittak Live\n21. Juni - 9. Jul
EXTD=i 1995\n
EXTT0=
EXTT1=
EXTT2=
EXTT3=
EXTT4=
EXTT5=
EXTT6=
EXTT7=
PLAYORDER=
